<svg width="17" height="12" viewBox="0 0 17 12" fill="none" xmlns="http://www.w3.org/2000/svg">
<path d="M16.6452 1.86127C16.5484 1.50085 16.3587 1.17217 16.095 0.908126C15.8313 0.644078 15.5028 0.453925 15.1425 0.356696C13.8163 7.23771e-08 8.5 0 8.5 0C8.5 0 3.18371 -7.23771e-08 1.85748 0.354799C1.49703 0.451712 1.16842 0.64176 0.904654 0.905857C0.64089 1.16995 0.451257 1.4988 0.354799 1.85938C-7.23771e-08 3.1875 0 5.95759 0 5.95759C0 5.95759 -7.23771e-08 8.72768 0.354799 10.0539C0.550223 10.7863 1.12701 11.3631 1.85748 11.5585C3.18371 11.9152 8.5 11.9152 8.5 11.9152C8.5 11.9152 13.8163 11.9152 15.1425 11.5585C15.8749 11.3631 16.4498 10.7863 16.6452 10.0539C17 8.72768 17 5.95759 17 5.95759C17 5.95759 17 3.1875 16.6452 1.86127ZM6.81138 8.5V3.41518L11.2132 5.93862L6.81138 8.5Z" fill="url(#paint0_linear_41_9)"/>
<defs>
<linearGradient id="paint0_linear_41_9" x1="8.5" y1="0" x2="8.5" y2="11.9152" gradientUnits="userSpaceOnUse">
<stop stop-color="#7D7AD8"/>
<stop offset="1" stop-color="#7D7AD8" stop-opacity="0"/>
</linearGradient>
</defs>
</svg>
