<svg width="13" height="17" viewBox="0 0 13 17" fill="none" xmlns="http://www.w3.org/2000/svg">
<path d="M11.993 8.29934L11.9928 8.299C11.6633 7.57526 11.1839 6.92478 10.5839 6.38865L10.5835 6.3883L10.4346 6.25494L10.3708 6.43344C10.3707 6.43371 10.3706 6.43397 10.3705 6.43423C10.1929 6.93468 9.87554 7.42165 9.45318 7.88072L9.44663 7.88783L9.44657 7.88776C9.31054 8.02999 9.15024 8.0677 9.0537 8.07627L11.993 8.29934ZM11.993 8.29934C12.3307 9.03961 12.5 9.82303 12.5 10.631L12.5 10.632C12.5016 11.4047 12.342 12.17 12.0305 12.8812L12.0303 12.8816C11.73 13.5689 11.2989 14.1887 10.7473 14.7203L10.746 14.7216C10.1999 15.2518 9.55254 15.6737 8.8398 15.9633L8.83949 15.9634C8.0985 16.265 7.31313 16.4185 6.49999 16.4185C5.68688 16.4185 4.90185 16.265 4.16139 15.9619L4.16074 15.9617M11.993 8.29934L4.16074 15.9617M4.26562 3.35952C4.0625 3.89114 3.77073 4.38491 3.39772 4.82823C3.13814 5.13632 2.84392 5.41499 2.52059 5.65899C1.7419 6.24317 1.10872 6.9917 0.668465 7.84854M4.26562 3.35952L4.7326 3.53822C4.73263 3.53814 4.73266 3.53806 4.73269 3.53798M4.26562 3.35952L4.73269 3.53798M4.26562 3.35952C4.43181 2.92522 4.50198 2.40261 4.47429 1.81152L4.449 1.2731L4.96342 1.56848M4.73269 3.53798C4.50926 4.12274 4.18865 4.66484 3.78031 5.15014L3.78009 5.1504C3.49628 5.48725 3.1748 5.79169 2.82179 6.05809L2.82065 6.05896C2.10219 6.59794 1.51896 7.28771 1.11372 8.07602M4.73269 3.53798C4.92928 3.02412 5.0038 2.42962 4.97374 1.78812L4.97373 1.78807L4.96342 1.56848M1.11372 8.07602C1.11389 8.07569 1.11406 8.07536 1.11422 8.07503L0.668465 7.84854M1.11372 8.07602C1.11355 8.07636 1.11337 8.0767 1.11319 8.07704L0.668465 7.84854M1.11372 8.07602C0.710356 8.87025 0.500535 9.74392 0.5 10.6292L0.668465 7.84854M4.96342 1.56848L4.93559 0.97594M4.96342 1.56848L5.16837 1.68616L5.41789 1.25288M4.93559 0.97594L9.05369 8.07627C8.93869 8.08647 8.75865 8.06638 8.60152 7.92809M4.93559 0.97594L5.41789 1.25288M4.93559 0.97594L8.9301 7.55119M5.41789 1.25288L5.16892 1.68648L5.16872 1.68636C6.13089 2.24055 6.9029 3.03511 7.46235 4.06342L7.46277 4.06418C8.16203 5.34414 8.45466 6.47268 8.39415 7.43326L8.39398 7.43626C8.38383 7.61457 8.45316 7.79972 8.60152 7.92809M5.41789 1.25288C6.46306 1.85478 7.29957 2.71798 7.90155 3.82446C8.52606 4.96759 8.85941 6.03106 8.8981 6.99548C8.84179 7.06436 8.78154 7.13378 8.71726 7.20364L8.8981 7.37003C8.8968 7.4017 8.89515 7.43325 8.89317 7.46469C8.89133 7.49713 8.90425 7.52957 8.9301 7.55119M8.60152 7.92809C8.60408 7.93032 8.60668 7.93252 8.60929 7.9347L8.9301 7.55119M8.60152 7.92809C8.59881 7.92571 8.59611 7.9233 8.59342 7.92084L8.9301 7.55119M4.16074 15.9617C3.44648 15.6705 2.80584 15.2517 2.25292 14.7188L4.16074 15.9617ZM2.44081 14.5658L2.44048 14.5655C1.35765 13.5166 0.755681 12.1193 0.755681 10.631C0.755681 9.76805 0.955365 8.93897 1.34731 8.16981L2.44081 14.5658ZM2.44081 14.5658C3.52761 15.6165 4.96963 16.1912 6.49999 16.1912C8.03035 16.1912 9.47237 15.6165 10.5592 14.5658C11.6425 13.5184 12.2443 12.1191 12.2443 10.631C12.2443 9.85282 12.0793 9.09581 11.7564 8.38618C11.5675 7.96978 11.3295 7.58274 11.045 7.22769L10.6075 6.68182L10.2327 7.27246C10.073 7.52399 9.8793 7.77462 9.65127 8.02399C9.49688 8.19157 9.28629 8.2909 9.05309 8.30244L9.04973 8.30263C8.93502 8.30909 8.82032 8.29322 8.71242 8.25615C8.60454 8.21908 8.50604 8.16172 8.4224 8.08798L8.42136 8.08707C8.32435 8.00203 8.24931 7.8975 8.20096 7.78185C8.15263 7.66625 8.13196 7.54199 8.14011 7.41822L8.14014 7.41776C8.20402 6.43268 7.87508 5.33177 7.23416 4.15947L7.23328 4.15786C6.89759 3.54919 6.4911 3.02044 5.99961 2.57861L5.3162 1.96425L5.17157 2.87175C5.13141 3.12371 5.06545 3.37121 4.97461 3.61055C4.74379 4.21492 4.41075 4.77925 3.98431 5.28696L3.98347 5.28796C3.6901 5.63912 3.35538 5.95579 2.98605 6.2314L2.9853 6.23196M2.44081 14.5658L2.9853 6.23196M2.9853 6.23196C2.29799 6.74686 1.73037 7.41639 1.34757 8.16931L2.9853 6.23196ZM0.969452 12.8793C0.657583 12.1663 0.500037 11.4112 0.5 10.6294L0.969452 12.8793ZM0.969452 12.8793C1.27111 13.5668 1.70674 14.1916 2.25285 14.7187L0.969452 12.8793ZM10.2812 5.64467L10.2785 5.64373L10.2744 5.64225L10.1396 5.59412C10.1479 5.57166 10.1617 5.55153 10.1798 5.53549C10.1979 5.51944 10.2198 5.50799 10.2435 5.50211C10.2672 5.49624 10.292 5.49614 10.3157 5.50181L10.2812 5.64467ZM4.93225 0.974022L4.85028 0.926954L4.84906 0.926252L4.65525 0.814968C4.55554 0.757301 4.42812 0.832989 4.43366 0.94652L4.44459 1.17924L4.4447 1.18165L4.44882 1.26926C4.65759 1.35385 4.91193 1.22085 4.93225 0.974022ZM8.89837 7.36348C8.90194 7.27383 8.90281 7.18325 8.90099 7.09176C8.84736 7.10623 8.78165 7.13618 8.72387 7.1966L8.89837 7.36348ZM10.2764 5.64447L10.2788 5.64727L10.2764 5.64447Z" stroke="white"/>
</svg>
